<svg xmlns="http://www.w3.org/2000/svg" xmlns:xlink="http://www.w3.org/1999/xlink" width="144" zoomAndPan="magnify" viewBox="0 0 108 56.249996" height="75" preserveAspectRatio="xMidYMid meet" version="1.0"><defs><g/><clipPath id="291ccc24e0"><path d="M 0.710938 0 L 107.289062 0 L 107.289062 55.511719 L 0.710938 55.511719 Z M 0.710938 0 " clip-rule="nonzero"/></clipPath><clipPath id="5aa316c427"><rect x="0" width="87" y="0" height="50"/></clipPath></defs><g clip-path="url(#291ccc24e0)"><path fill="#ffffff" d="M 0.710938 0 L 107.289062 0 L 107.289062 55.511719 L 0.710938 55.511719 Z M 0.710938 0 " fill-opacity="1" fill-rule="nonzero"/><path fill="#ffffff" d="M 0.710938 0 L 107.289062 0 L 107.289062 55.511719 L 0.710938 55.511719 Z M 0.710938 0 " fill-opacity="1" fill-rule="nonzero"/></g><g transform="matrix(1, 0, 0, 1, 11, 3)"><g clip-path="url(#5aa316c427)"><g fill="#000000" fill-opacity="1"><g transform="translate(0.333285, 39.274091)"><g><path d="M 10.125 -33.4375 C 11.957031 -33.09375 13.726562 -32.578125 15.4375 -31.890625 C 17.144531 -31.203125 18.726562 -30.207031 20.1875 -28.90625 C 21.769531 -27.476562 22.992188 -25.773438 23.859375 -23.796875 C 24.734375 -21.828125 25.046875 -19.769531 24.796875 -17.625 C 24.585938 -15.789062 24.007812 -14.09375 23.0625 -12.53125 C 22.113281 -10.976562 20.953125 -9.613281 19.578125 -8.4375 C 18.054688 -7.132812 16.257812 -6.085938 14.1875 -5.296875 C 12.125 -4.503906 10.144531 -3.796875 8.25 -3.171875 C 7.71875 -3.015625 7.179688 -2.875 6.640625 -2.75 C 6.097656 -2.625 5.5625 -2.59375 5.03125 -2.65625 C 4.289062 -2.78125 3.644531 -3.132812 3.09375 -3.71875 C 2.550781 -4.3125 2.296875 -4.984375 2.328125 -5.734375 C 2.546875 -14.191406 2.96875 -22.675781 3.59375 -31.1875 C 3.65625 -32.15625 3.972656 -32.820312 4.546875 -33.1875 C 5.117188 -33.5625 5.800781 -33.765625 6.59375 -33.796875 C 7.382812 -33.828125 8.15625 -33.78125 8.90625 -33.65625 C 9.3125 -33.59375 9.71875 -33.519531 10.125 -33.4375 Z M 17.578125 -17.203125 C 18.015625 -18.472656 18.082031 -19.613281 17.78125 -20.625 C 17.488281 -21.632812 16.953125 -22.519531 16.171875 -23.28125 C 15.398438 -24.050781 14.484375 -24.679688 13.421875 -25.171875 C 12.367188 -25.671875 11.296875 -26.03125 10.203125 -26.25 C 9.898438 -21.125 9.65625 -16.054688 9.46875 -11.046875 C 10.613281 -11.421875 11.722656 -11.847656 12.796875 -12.328125 C 13.867188 -12.816406 14.820312 -13.445312 15.65625 -14.21875 C 16.5 -15 17.140625 -15.992188 17.578125 -17.203125 Z M 17.578125 -17.203125 "/></g></g></g><g fill="#000000" fill-opacity="1"><g transform="translate(27.557327, 39.274091)"><g><path d="M 24.15625 -20.46875 C 24.25 -17.363281 24.328125 -14.253906 24.390625 -11.140625 C 24.453125 -8.035156 24.53125 -4.925781 24.625 -1.8125 C 24.65625 -0.914062 24.4375 -0.195312 23.96875 0.34375 C 23.5 0.894531 22.921875 1.253906 22.234375 1.421875 C 21.554688 1.585938 20.863281 1.578125 20.15625 1.390625 C 19.457031 1.210938 18.867188 0.859375 18.390625 0.328125 C 17.910156 -0.203125 17.65625 -0.914062 17.625 -1.8125 C 17.59375 -2.75 17.566406 -3.679688 17.546875 -4.609375 C 17.535156 -5.546875 17.515625 -6.476562 17.484375 -7.40625 L 10.484375 -7.640625 C 10.242188 -6.492188 10.015625 -5.328125 9.796875 -4.140625 C 9.578125 -2.960938 9.359375 -1.785156 9.140625 -0.609375 C 8.984375 0.265625 8.632812 0.898438 8.09375 1.296875 C 7.550781 1.703125 6.921875 1.90625 6.203125 1.90625 C 5.484375 1.90625 4.804688 1.71875 4.171875 1.34375 C 3.535156 0.976562 3.035156 0.46875 2.671875 -0.1875 C 2.316406 -0.84375 2.21875 -1.601562 2.375 -2.46875 C 2.9375 -5.519531 3.566406 -8.535156 4.265625 -11.515625 C 4.960938 -14.503906 5.953125 -17.410156 7.234375 -20.234375 C 7.847656 -21.628906 8.632812 -23.132812 9.59375 -24.75 C 10.5625 -26.375 11.660156 -27.859375 12.890625 -29.203125 C 14.117188 -30.554688 15.476562 -31.5625 16.96875 -32.21875 C 18.363281 -32.8125 19.5 -32.921875 20.375 -32.546875 C 21.25 -32.171875 21.929688 -31.492188 22.421875 -30.515625 C 22.921875 -29.535156 23.285156 -28.421875 23.515625 -27.171875 C 23.753906 -25.929688 23.910156 -24.707031 23.984375 -23.5 C 24.066406 -22.289062 24.125 -21.28125 24.15625 -20.46875 Z M 12.6875 -15.34375 C 12.65625 -15.21875 12.613281 -15.09375 12.5625 -14.96875 C 12.519531 -14.84375 12.46875 -14.71875 12.40625 -14.59375 C 13.238281 -14.5625 14.054688 -14.53125 14.859375 -14.5 C 15.671875 -14.46875 16.484375 -14.4375 17.296875 -14.40625 C 17.265625 -15.40625 17.238281 -16.410156 17.21875 -17.421875 C 17.207031 -18.429688 17.1875 -19.445312 17.15625 -20.46875 C 17.125 -20.875 17.109375 -21.300781 17.109375 -21.75 C 17.109375 -22.195312 17.109375 -22.65625 17.109375 -23.125 C 16.578125 -22.5 16.128906 -21.894531 15.765625 -21.3125 C 15.140625 -20.375 14.566406 -19.40625 14.046875 -18.40625 C 13.535156 -17.414062 13.082031 -16.394531 12.6875 -15.34375 Z M 12.6875 -15.34375 "/></g></g></g><g fill="#000000" fill-opacity="1"><g transform="translate(54.501672, 39.274091)"><g><path d="M 28.671875 -25.546875 C 28.953125 -24.148438 28.875 -22.90625 28.4375 -21.8125 C 28 -20.726562 27.304688 -19.773438 26.359375 -18.953125 C 25.410156 -18.128906 24.316406 -17.421875 23.078125 -16.828125 C 23.453125 -16.273438 23.738281 -15.660156 23.9375 -14.984375 C 24.144531 -14.316406 24.25 -13.582031 24.25 -12.78125 C 24.28125 -11.3125 23.972656 -9.945312 23.328125 -8.6875 C 22.691406 -7.4375 21.835938 -6.328125 20.765625 -5.359375 C 19.691406 -4.398438 18.492188 -3.625 17.171875 -3.03125 C 15.859375 -2.4375 14.53125 -2.0625 13.1875 -1.90625 C 11.257812 -1.65625 9.457031 -1.832031 7.78125 -2.4375 C 6.101562 -3.050781 4.757812 -4.046875 3.75 -5.421875 C 2.738281 -6.804688 2.265625 -8.539062 2.328125 -10.625 C 2.421875 -14.019531 2.765625 -17.445312 3.359375 -20.90625 C 3.953125 -24.375 4.476562 -27.785156 4.9375 -31.140625 C 5.0625 -31.984375 5.523438 -32.632812 6.328125 -33.09375 C 7.140625 -33.5625 7.9375 -33.75 8.71875 -33.65625 C 8.84375 -33.71875 8.953125 -33.78125 9.046875 -33.84375 C 10.378906 -34.3125 11.847656 -34.578125 13.453125 -34.640625 C 15.054688 -34.703125 16.671875 -34.550781 18.296875 -34.1875 C 19.929688 -33.832031 21.46875 -33.273438 22.90625 -32.515625 C 24.351562 -31.753906 25.585938 -30.789062 26.609375 -29.625 C 27.640625 -28.457031 28.328125 -27.097656 28.671875 -25.546875 Z M 16.78125 -27.375 C 15.820312 -27.644531 14.914062 -27.765625 14.0625 -27.734375 C 13.207031 -27.703125 12.328125 -27.550781 11.421875 -27.28125 C 11.265625 -26.25 11.125 -25.234375 11 -24.234375 C 10.875 -23.242188 10.75 -22.238281 10.625 -21.21875 C 10.84375 -21.28125 11.0625 -21.3125 11.28125 -21.3125 C 11.46875 -21.3125 11.71875 -21.3125 12.03125 -21.3125 C 13.019531 -21.3125 13.992188 -21.390625 14.953125 -21.546875 C 15.921875 -21.703125 16.890625 -21.945312 17.859375 -22.28125 C 18.109375 -22.375 18.539062 -22.546875 19.15625 -22.796875 C 19.78125 -23.046875 20.359375 -23.3125 20.890625 -23.59375 C 21.421875 -23.875 21.703125 -24.125 21.734375 -24.34375 C 21.765625 -24.675781 21.5625 -25.003906 21.125 -25.328125 C 20.6875 -25.660156 20.164062 -25.972656 19.5625 -26.265625 C 18.957031 -26.566406 18.390625 -26.816406 17.859375 -27.015625 C 17.328125 -27.222656 16.96875 -27.34375 16.78125 -27.375 Z M 16.265625 -10.71875 C 16.984375 -11.5 17.285156 -12.128906 17.171875 -12.609375 C 17.066406 -13.085938 16.71875 -13.441406 16.125 -13.671875 C 15.539062 -13.910156 14.859375 -14.078125 14.078125 -14.171875 C 13.304688 -14.265625 12.609375 -14.3125 11.984375 -14.3125 C 11.703125 -14.3125 11.46875 -14.3125 11.28125 -14.3125 C 10.71875 -14.3125 10.207031 -14.421875 9.75 -14.640625 C 9.71875 -14.234375 9.675781 -13.828125 9.625 -13.421875 C 9.582031 -13.023438 9.53125 -12.625 9.46875 -12.21875 C 9.4375 -11.78125 9.375 -11.234375 9.28125 -10.578125 C 9.1875 -9.929688 9.28125 -9.453125 9.5625 -9.140625 C 9.96875 -8.765625 10.488281 -8.566406 11.125 -8.546875 C 11.757812 -8.535156 12.414062 -8.644531 13.09375 -8.875 C 13.78125 -9.113281 14.410156 -9.398438 14.984375 -9.734375 C 15.566406 -10.078125 15.992188 -10.40625 16.265625 -10.71875 Z M 16.265625 -10.71875 "/></g></g></g></g></g></svg>